<svg width="105" height="21" viewBox="0 0 105 21" fill="none" xmlns="http://www.w3.org/2000/svg">
    <rect width="105" height="21" rx="10.5" fill="#4353FF"/>
    <path d="M10 8C10 7.44772 10.4477 7 11 7V7C11.5523 7 12 7.44772 12 8V15C12 15.5523 11.5523 16 11 16V16C10.4477 16 10 15.5523 10 15V8Z" fill="#A3E9FF"/>
    <path d="M16 9C16 8.44772 16.4477 8 17 8V8C17.5523 8 18 8.44772 18 9V15C18 15.5523 17.5523 16 17 16V16C16.4477 16 16 15.5523 16 15V9Z" fill="#A3E9FF"/>
    <path d="M25 11C25 10.4477 25.4477 10 26 10V10C26.5523 10 27 10.4477 27 11V15C27 15.5523 26.5523 16 26 16V16C25.4477 16 25 15.5523 25 15V11Z" fill="#A3E9FF"/>
    <path d="M13 11C13 10.4477 13.4477 10 14 10V10C14.5523 10 15 10.4477 15 11V15C15 15.5523 14.5523 16 14 16V16C13.4477 16 13 15.5523 13 15V11Z" fill="#A3E9FF"/>
    <path d="M19 7C19 6.44772 19.4477 6 20 6V6C20.5523 6 21 6.44772 21 7V15C21 15.5523 20.5523 16 20 16V16C19.4477 16 19 15.5523 19 15V7Z" fill="#A3E9FF"/>
    <path d="M7 13C7 12.4477 7.44772 12 8 12V12C8.55228 12 9 12.4477 9 13V15C9 15.5523 8.55228 16 8 16V16C7.44772 16 7 15.5523 7 15V13Z" fill="#A3E9FF"/>
    <path d="M35.4482 13.4092C35.4482 13.2178 35.4255 13.0469 35.3799 12.8965C35.3343 12.7415 35.25 12.6003 35.127 12.4727C35.0085 12.3451 34.8353 12.2197 34.6074 12.0967C34.3841 11.9691 34.0947 11.8415 33.7393 11.7139C33.3337 11.5635 32.9486 11.3994 32.584 11.2217C32.224 11.0394 31.9049 10.832 31.627 10.5996C31.349 10.3626 31.1302 10.0869 30.9707 9.77246C30.8112 9.45801 30.7314 9.09115 30.7314 8.67188C30.7314 8.26172 30.8089 7.88802 30.9639 7.55078C31.1234 7.20898 31.3467 6.91732 31.6338 6.67578C31.9255 6.42969 32.2695 6.24056 32.666 6.1084C33.0625 5.97624 33.5023 5.91016 33.9854 5.91016C34.6553 5.91016 35.234 6.0446 35.7217 6.31348C36.2093 6.58236 36.5853 6.94694 36.8496 7.40723C37.1139 7.86751 37.2461 8.38704 37.2461 8.96582H35.4072C35.4072 8.66048 35.3548 8.3916 35.25 8.15918C35.1497 7.9222 34.9925 7.73763 34.7783 7.60547C34.5687 7.46875 34.2952 7.40039 33.958 7.40039C33.6481 7.40039 33.3906 7.45736 33.1855 7.57129C32.9805 7.68066 32.8278 7.83333 32.7275 8.0293C32.6273 8.2207 32.5771 8.4349 32.5771 8.67188C32.5771 8.84961 32.6182 9.00911 32.7002 9.15039C32.7822 9.29167 32.8984 9.42155 33.0488 9.54004C33.2038 9.65397 33.3906 9.76335 33.6094 9.86816C33.8281 9.97298 34.0788 10.0732 34.3613 10.1689C34.849 10.3421 35.2751 10.5312 35.6396 10.7363C36.0088 10.9414 36.3141 11.1738 36.5557 11.4336C36.8018 11.6888 36.9863 11.9782 37.1094 12.3018C37.2324 12.6208 37.2939 12.9854 37.2939 13.3955C37.2939 13.8148 37.2188 14.193 37.0684 14.5303C36.918 14.863 36.7015 15.1501 36.4189 15.3916C36.1364 15.6286 35.7946 15.8132 35.3936 15.9453C34.9971 16.0729 34.5527 16.1367 34.0605 16.1367C33.6003 16.1367 33.1582 16.0729 32.7344 15.9453C32.3105 15.8132 31.9323 15.6149 31.5996 15.3506C31.2669 15.0863 31.0026 14.7536 30.8066 14.3525C30.6107 13.9469 30.5127 13.4707 30.5127 12.9238H32.3584C32.3584 13.2383 32.3971 13.5049 32.4746 13.7236C32.5566 13.9424 32.6729 14.1201 32.8232 14.2568C32.9782 14.3936 33.1605 14.4938 33.3701 14.5576C33.5843 14.6169 33.8213 14.6465 34.0811 14.6465C34.4001 14.6465 34.6598 14.5941 34.8604 14.4893C35.0609 14.3844 35.209 14.2386 35.3047 14.0518C35.4004 13.8649 35.4482 13.6507 35.4482 13.4092ZM40.4111 14.209L41.8672 8.60352H42.9814L42.708 10.5723L41.2588 16H40.3018L40.4111 14.209ZM39.7959 8.60352L40.8623 14.2158L40.8965 16H39.7891L38.0801 8.60352H39.7959ZM44.1914 14.1338L45.2236 8.60352H46.9395L45.2305 16H44.1299L44.1914 14.1338ZM43.1523 8.60352L44.5947 14.1475L44.7246 16H43.7607L42.3047 10.5791L42.0381 8.60352H43.1523ZM51.0273 16.1367C50.5124 16.1367 50.0521 16.057 49.6465 15.8975C49.2454 15.738 48.9036 15.5078 48.6211 15.207C48.3431 14.9062 48.1312 14.5439 47.9854 14.1201C47.8395 13.6963 47.7666 13.2178 47.7666 12.6846V12.1514C47.7666 11.5498 47.8395 11.0212 47.9854 10.5654C48.1357 10.1097 48.3431 9.72461 48.6074 9.41016C48.8763 9.0957 49.1999 8.861 49.5781 8.70605C49.9564 8.54655 50.3734 8.4668 50.8291 8.4668C51.3167 8.4668 51.7428 8.54655 52.1074 8.70605C52.472 8.86556 52.7728 9.10026 53.0098 9.41016C53.2513 9.71549 53.4313 10.0915 53.5498 10.5381C53.6729 10.9801 53.7344 11.486 53.7344 12.0557V12.8691H48.5664V11.5977H51.9912V11.4404C51.9867 11.1305 51.9434 10.8617 51.8613 10.6338C51.7839 10.4059 51.6608 10.2305 51.4922 10.1074C51.3281 9.98438 51.1048 9.92285 50.8223 9.92285C50.6035 9.92285 50.4121 9.96842 50.248 10.0596C50.084 10.1462 49.9495 10.2806 49.8447 10.4629C49.7445 10.6452 49.6693 10.8776 49.6191 11.1602C49.569 11.4382 49.5439 11.7686 49.5439 12.1514V12.6846C49.5439 13.0264 49.5781 13.3226 49.6465 13.5732C49.7194 13.8239 49.8219 14.0312 49.9541 14.1953C50.0908 14.3594 50.2572 14.4824 50.4531 14.5645C50.6536 14.6465 50.8815 14.6875 51.1367 14.6875C51.5013 14.6875 51.8226 14.6214 52.1006 14.4893C52.3831 14.3525 52.627 14.1634 52.832 13.9219L53.625 14.9473C53.4837 15.1387 53.2923 15.3278 53.0508 15.5146C52.8138 15.6969 52.5267 15.8473 52.1895 15.9658C51.8568 16.0798 51.4694 16.1367 51.0273 16.1367ZM57.9727 16.1367C57.4577 16.1367 56.9974 16.057 56.5918 15.8975C56.1908 15.738 55.849 15.5078 55.5664 15.207C55.2884 14.9062 55.0765 14.5439 54.9307 14.1201C54.7848 13.6963 54.7119 13.2178 54.7119 12.6846V12.1514C54.7119 11.5498 54.7848 11.0212 54.9307 10.5654C55.0811 10.1097 55.2884 9.72461 55.5527 9.41016C55.8216 9.0957 56.1452 8.861 56.5234 8.70605C56.9017 8.54655 57.3187 8.4668 57.7744 8.4668C58.262 8.4668 58.6882 8.54655 59.0527 8.70605C59.4173 8.86556 59.7181 9.10026 59.9551 9.41016C60.1966 9.71549 60.3766 10.0915 60.4951 10.5381C60.6182 10.9801 60.6797 11.486 60.6797 12.0557V12.8691H55.5117V11.5977H58.9365V11.4404C58.932 11.1305 58.8887 10.8617 58.8066 10.6338C58.7292 10.4059 58.6061 10.2305 58.4375 10.1074C58.2734 9.98438 58.0501 9.92285 57.7676 9.92285C57.5488 9.92285 57.3574 9.96842 57.1934 10.0596C57.0293 10.1462 56.8949 10.2806 56.79 10.4629C56.6898 10.6452 56.6146 10.8776 56.5645 11.1602C56.5143 11.4382 56.4893 11.7686 56.4893 12.1514V12.6846C56.4893 13.0264 56.5234 13.3226 56.5918 13.5732C56.6647 13.8239 56.7673 14.0312 56.8994 14.1953C57.0361 14.3594 57.2025 14.4824 57.3984 14.5645C57.599 14.6465 57.8268 14.6875 58.082 14.6875C58.4466 14.6875 58.7679 14.6214 59.0459 14.4893C59.3285 14.3525 59.5723 14.1634 59.7773 13.9219L60.5703 14.9473C60.429 15.1387 60.2376 15.3278 59.9961 15.5146C59.7591 15.6969 59.472 15.8473 59.1348 15.9658C58.8021 16.0798 58.4147 16.1367 57.9727 16.1367ZM65.1094 8.60352V9.92969H61.2402V8.60352H65.1094ZM62.2314 6.78516H64.002V13.8467C64.002 14.0654 64.027 14.234 64.0771 14.3525C64.1273 14.4665 64.2002 14.5439 64.2959 14.585C64.3916 14.626 64.5101 14.6465 64.6514 14.6465C64.7562 14.6465 64.8542 14.6396 64.9453 14.626C65.0365 14.6123 65.1071 14.5986 65.1572 14.585L65.1504 15.9658C65.0137 16.016 64.861 16.057 64.6924 16.0889C64.5238 16.1208 64.3255 16.1367 64.0977 16.1367C63.7285 16.1367 63.4027 16.0661 63.1201 15.9248C62.8421 15.7835 62.6234 15.5579 62.4639 15.248C62.3089 14.9336 62.2314 14.5189 62.2314 14.0039V6.78516ZM69.5664 14.0244L71.7266 6.04688H73.7363L70.6191 16H69.2656L69.5664 14.0244ZM67.6592 6.04688L69.7988 14.0244L70.127 16H68.7598L65.6562 6.04688H67.6592ZM74.085 12.5137V12.0967C74.085 11.5316 74.1579 11.0257 74.3037 10.5791C74.4495 10.1279 74.6592 9.7474 74.9326 9.4375C75.2061 9.12305 75.5342 8.88379 75.917 8.71973C76.2998 8.55111 76.7282 8.4668 77.2021 8.4668C77.6852 8.4668 78.1182 8.55111 78.501 8.71973C78.8883 8.88379 79.2188 9.12305 79.4922 9.4375C79.7656 9.7474 79.9753 10.1279 80.1211 10.5791C80.2669 11.0257 80.3398 11.5316 80.3398 12.0967V12.5137C80.3398 13.0788 80.2669 13.5846 80.1211 14.0312C79.9753 14.4779 79.7656 14.8584 79.4922 15.1729C79.2188 15.4873 78.8906 15.7266 78.5078 15.8906C78.125 16.0547 77.6943 16.1367 77.2158 16.1367C76.7419 16.1367 76.3112 16.0547 75.9238 15.8906C75.541 15.7266 75.2106 15.4873 74.9326 15.1729C74.6592 14.8584 74.4495 14.4779 74.3037 14.0312C74.1579 13.5846 74.085 13.0788 74.085 12.5137ZM75.8623 12.0967V12.5137C75.8623 12.86 75.8896 13.1676 75.9443 13.4365C76.0036 13.7054 76.0902 13.9333 76.2041 14.1201C76.3226 14.307 76.4661 14.4482 76.6348 14.5439C76.8034 14.6396 76.9971 14.6875 77.2158 14.6875C77.4437 14.6875 77.6419 14.6396 77.8105 14.5439C77.9837 14.4482 78.125 14.307 78.2344 14.1201C78.3438 13.9333 78.4258 13.7054 78.4805 13.4365C78.5352 13.1676 78.5625 12.86 78.5625 12.5137V12.0967C78.5625 11.7549 78.5329 11.4495 78.4736 11.1807C78.4144 10.9118 78.3278 10.6839 78.2139 10.4971C78.0999 10.3102 77.9587 10.1689 77.79 10.0732C77.6214 9.97298 77.4255 9.92285 77.2021 9.92285C76.988 9.92285 76.7965 9.97298 76.6279 10.0732C76.4639 10.1689 76.3226 10.3102 76.2041 10.4971C76.0902 10.6839 76.0036 10.9118 75.9443 11.1807C75.8896 11.4495 75.8623 11.7549 75.8623 12.0967ZM83.5049 8.60352V16H81.7275V8.60352H83.5049ZM81.6318 6.67578C81.6318 6.40234 81.7184 6.17676 81.8916 5.99902C82.0693 5.81673 82.3109 5.72559 82.6162 5.72559C82.9215 5.72559 83.1608 5.81673 83.334 5.99902C83.5117 6.17676 83.6006 6.40234 83.6006 6.67578C83.6006 6.94466 83.5117 7.17025 83.334 7.35254C83.1608 7.53027 82.9215 7.61914 82.6162 7.61914C82.3109 7.61914 82.0693 7.53027 81.8916 7.35254C81.7184 7.17025 81.6318 6.94466 81.6318 6.67578ZM87.9209 14.6875C88.1305 14.6875 88.3174 14.6442 88.4814 14.5576C88.6455 14.471 88.7731 14.3411 88.8643 14.168C88.96 13.9902 89.0124 13.7669 89.0215 13.498H90.6895C90.6849 14.0267 90.5573 14.4893 90.3066 14.8857C90.0605 15.2822 89.7324 15.5898 89.3223 15.8086C88.9121 16.0273 88.4541 16.1367 87.9482 16.1367C87.4287 16.1367 86.9775 16.0524 86.5947 15.8838C86.2119 15.7152 85.8929 15.4736 85.6377 15.1592C85.387 14.8402 85.1979 14.4619 85.0703 14.0244C84.9473 13.5824 84.8857 13.0879 84.8857 12.541V12.0625C84.8857 11.5156 84.9473 11.0234 85.0703 10.5859C85.1979 10.1439 85.387 9.76562 85.6377 9.45117C85.8929 9.13216 86.2119 8.88835 86.5947 8.71973C86.9775 8.55111 87.4264 8.4668 87.9414 8.4668C88.4883 8.4668 88.9645 8.57845 89.3701 8.80176C89.7803 9.02507 90.1016 9.34863 90.334 9.77246C90.5664 10.1917 90.6849 10.7021 90.6895 11.3037H89.0215C89.0124 11.0166 88.9645 10.7705 88.8779 10.5654C88.7959 10.3604 88.6751 10.2031 88.5156 10.0938C88.3561 9.97982 88.1556 9.92285 87.9141 9.92285C87.6543 9.92285 87.4401 9.97526 87.2715 10.0801C87.1074 10.1803 86.9798 10.3262 86.8887 10.5176C86.8021 10.709 86.7406 10.9368 86.7041 11.2012C86.6722 11.4609 86.6562 11.748 86.6562 12.0625V12.541C86.6562 12.8691 86.6722 13.1654 86.7041 13.4297C86.7406 13.6895 86.8021 13.9128 86.8887 14.0996C86.9798 14.2865 87.1074 14.4323 87.2715 14.5371C87.4355 14.6374 87.652 14.6875 87.9209 14.6875ZM94.9141 16.1367C94.3991 16.1367 93.9388 16.057 93.5332 15.8975C93.1322 15.738 92.7904 15.5078 92.5078 15.207C92.2298 14.9062 92.0179 14.5439 91.8721 14.1201C91.7262 13.6963 91.6533 13.2178 91.6533 12.6846V12.1514C91.6533 11.5498 91.7262 11.0212 91.8721 10.5654C92.0225 10.1097 92.2298 9.72461 92.4941 9.41016C92.763 9.0957 93.0866 8.861 93.4648 8.70605C93.8431 8.54655 94.2601 8.4668 94.7158 8.4668C95.2035 8.4668 95.6296 8.54655 95.9941 8.70605C96.3587 8.86556 96.6595 9.10026 96.8965 9.41016C97.138 9.71549 97.318 10.0915 97.4365 10.5381C97.5596 10.9801 97.6211 11.486 97.6211 12.0557V12.8691H92.4531V11.5977H95.8779V11.4404C95.8734 11.1305 95.8301 10.8617 95.748 10.6338C95.6706 10.4059 95.5475 10.2305 95.3789 10.1074C95.2148 9.98438 94.9915 9.92285 94.709 9.92285C94.4902 9.92285 94.2988 9.96842 94.1348 10.0596C93.9707 10.1462 93.8363 10.2806 93.7314 10.4629C93.6312 10.6452 93.556 10.8776 93.5059 11.1602C93.4557 11.4382 93.4307 11.7686 93.4307 12.1514V12.6846C93.4307 13.0264 93.4648 13.3226 93.5332 13.5732C93.6061 13.8239 93.7087 14.0312 93.8408 14.1953C93.9775 14.3594 94.1439 14.4824 94.3398 14.5645C94.5404 14.6465 94.7682 14.6875 95.0234 14.6875C95.388 14.6875 95.7093 14.6214 95.9873 14.4893C96.2699 14.3525 96.5137 14.1634 96.7188 13.9219L97.5117 14.9473C97.3704 15.1387 97.179 15.3278 96.9375 15.5146C96.7005 15.6969 96.4134 15.8473 96.0762 15.9658C95.7435 16.0798 95.3561 16.1367 94.9141 16.1367Z" fill="white"/>
    <path d="M22 13C22 12.4477 22.4477 12 23 12V12C23.5523 12 24 12.4477 24 13V15C24 15.5523 23.5523 16 23 16V16C22.4477 16 22 15.5523 22 15V13Z" fill="#A3E9FF"/>
</svg>
